<svg width="1440" height="1024" viewBox="0 0 1440 1024" fill="none" xmlns="http://www.w3.org/2000/svg">
<path d="M77.5533 991.021C-285.419 1236.31 -372.87 302.473 -122.446 -56.9789C138.967 -432.207 189.71 -299.14 633.554 -188.979C832.631 -139.568 1322.94 -308.32 1441.55 -140.979C1544.65 4.46616 1812.98 33.4661 1729.55 191.021C1645.2 350.326 1449.55 195.021 1317.55 419.021C1185.55 643.021 1540.13 892.64 1441.55 1043.02C1275.12 1296.91 496.037 1115.75 537.553 815.021C566.848 602.821 869.489 672.292 889.553 459.021C916.589 171.657 633.554 230.388 633.554 519.021C633.554 611.021 304.004 430.15 329.553 539.021C387.897 787.635 289.138 848.035 77.5533 991.021Z" fill="url(#paint0_linear_289_12)"/>
<defs>
<linearGradient id="paint0_linear_289_12" x1="740.196" y1="-305" x2="740.196" y2="1163.58" gradientUnits="userSpaceOnUse">
<stop stop-color="#8A0074"/>
<stop offset="1" stop-color="#706B00"/>
</linearGradient>
</defs>
</svg>
