<svg width="100" height="100" viewBox="0 0 100 100" fill="none" xmlns="http://www.w3.org/2000/svg">
<g clip-path="url(#clip0_39_53)">
<path d="M84.2257 100H81.0709V78.69H80.4015V72.6276H95.0672C94.7384 56.7677 95.3467 40.8549 96.9012 25.1967C97.9341 25.5756 98.9671 25.954 100 26.3329C97.5846 50.6632 97.5157 75.6298 99.7782 100H96.5735C96.3427 97.4338 96.1427 94.8611 95.9618 92.2842H84.2257V100ZM95.7439 88.9775C95.5321 85.5544 95.3652 82.125 95.242 78.69H84.2257V88.9775H95.7439Z" fill="#FFA500"/>
<path d="M71.4331 0.325963C74.9033 -1.22734 78.3719 2.92012 79.1802 9.58745C79.988 16.2559 77.8296 22.9211 74.3594 24.4733C70.8892 26.0266 67.4212 21.8792 66.6129 15.2107C65.8046 8.54235 67.9629 1.87822 71.4331 0.325963Z" fill="black"/>
<path d="M82.1969 55.9878C81.8693 50.9781 81.1561 45.9162 80.4328 41.363C80.5459 41.2263 80.6615 41.089 80.7682 40.9539C83.8718 37.0444 85.1658 32.9621 85.3028 32.5094C85.6881 31.2387 85.7937 29.7548 85.599 28.3313C85.4038 26.9077 84.9324 25.7145 84.2708 24.9733C83.832 24.482 83.3329 24.2215 82.8272 24.2215C81.8241 24.2215 80.8809 25.2473 80.3657 26.8975C80.3574 26.9227 80.3331 26.9911 80.2957 27.0939C80.2156 27.306 80.0719 27.6649 79.86 28.1203C79.6173 28.6391 79.2645 29.3189 78.7974 30.0675C78.6737 25.9448 79.5131 21.9648 81.2566 20.7382C83.6263 19.0703 87.2969 20.8851 89.18 28.6133C91.7368 39.2688 92.555 46.3786 92.4962 58.7041C92.1159 67.2579 89.304 69.0878 86.7805 69.6567C86.4935 69.7913 86.1946 69.8666 85.8854 69.8591L85.6172 69.8521C85.2397 69.8919 84.8985 69.8919 84.5917 69.8268L78.4459 69.6723L78.4457 55.8936L82.1969 55.9878Z" fill="black"/>
<path d="M73.0121 96.8638C72.724 97.0069 72.4241 97.0904 72.1143 97.0904C72.0473 97.0904 71.9801 97.0866 71.9123 97.0796C69.9352 96.8676 68.4221 93.6167 68.5319 89.8175L69.3315 62.2606C69.3387 62.0125 69.3538 61.7692 69.3739 61.5297H73.0121V96.8638Z" fill="black"/>
<path d="M64.0236 47.2316H58.0998V45.5583H58.4107V42.5471H62.9753C62.97 42.6837 62.9644 42.821 62.9644 42.9604C62.9644 44.6821 63.3778 46.2203 64.0236 47.2316Z" fill="#5E96FF"/>
<path d="M80.2877 28.8549C80.5178 28.3614 80.6738 27.9696 80.7638 27.7301C80.8083 27.6095 80.8368 27.5271 80.8498 27.4884C80.8564 27.4691 80.8575 27.4647 80.8575 27.4647C81.5027 25.3975 82.8948 24.7069 83.9814 25.9255C85.076 27.1515 85.4454 29.8517 84.8068 31.955L84.8074 31.954C84.6739 32.3942 83.4453 36.2645 80.4532 40.0341C77.4721 43.8027 72.7431 47.3683 65.8717 47.3689C65.8582 47.3689 65.8456 47.3689 65.8322 47.3689C64.565 47.3689 63.538 45.3952 63.538 42.9604C63.538 40.5249 64.565 38.5503 65.8322 38.5503C71.9167 38.5379 75.672 35.497 77.9378 32.6585C79.0692 31.2338 79.8264 29.8414 80.2877 28.8549Z" fill="black"/>
<path d="M3.42654 100H0.221817C2.48433 75.6298 2.41544 50.6632 0 26.3329C1.03296 25.954 2.06589 25.5756 3.09884 25.1967C4.6533 40.8549 5.26163 56.7677 4.93281 72.6276H19.5985V78.69H18.9291V100H15.7743V92.2842H4.03824C3.8573 94.8611 3.65733 97.4338 3.42654 100ZM15.7743 88.9775V78.69H4.75803C4.63482 82.125 4.46787 85.5544 4.25613 88.9775H15.7743Z" fill="#5E96FF"/>
<path d="M28.5673 0.325946C32.0375 1.87814 34.1958 8.54228 33.3875 15.2107C32.5792 21.8791 29.1112 26.0266 25.641 24.4733C22.1707 22.9211 20.0124 16.2559 20.8202 9.58743C21.6285 2.92011 25.0971 -1.2273 28.5673 0.325946Z" fill="black"/>
<path d="M19.7626 27.2441C19.685 27.0449 19.6433 26.9244 19.6307 26.8867C19.119 25.2473 18.1763 24.2215 17.1736 24.2215C16.6683 24.2215 16.1695 24.4815 15.7306 24.9733C14.3646 26.5046 13.9016 29.8851 14.6982 32.5094C14.836 32.9631 16.1339 37.0514 19.2336 40.9556C19.3397 41.0901 19.4548 41.2268 19.5674 41.3624C18.8443 45.9162 18.1309 50.9781 17.8035 55.9873L21.554 55.8936L21.5543 69.6718L15.4088 69.8268C15.1018 69.8919 14.7606 69.8919 14.3828 69.8521L14.115 69.8591C13.8061 69.8666 13.5073 69.7913 13.2205 69.6573C10.6969 69.0884 7.88433 67.259 7.50399 58.7041C7.44517 46.3786 8.26357 39.2688 10.8202 28.6133C12.7034 20.8851 16.3742 19.0703 18.7437 20.7382C20.4872 21.9648 21.3266 25.9448 21.2028 30.0681C20.4396 28.8457 19.9797 27.7957 19.7626 27.2441Z" fill="black"/>
<path d="M30.6265 61.5297C30.6467 61.7698 30.6615 62.0131 30.6688 62.2612L31.4682 89.8165C31.5791 93.6162 30.0655 96.8681 28.0884 97.0796C28.0206 97.0872 27.9528 97.0904 27.8856 97.0904C27.5758 97.0904 27.2759 97.0075 26.9877 96.8638V61.5297H30.6265Z" fill="black"/>
<path d="M37.0367 42.9599C37.0367 42.8205 37.0311 42.6837 37.0258 42.5471H41.5895V45.5583H41.8998V47.2316H35.9777C36.6233 46.2198 37.0367 44.681 37.0367 42.9599Z" fill="#FFA500"/>
<path d="M34.1317 47.3694C27.2582 47.3699 22.5291 43.8032 19.5478 40.0336C16.5557 36.265 15.327 32.3942 15.1937 31.954C14.5548 29.8506 14.9254 27.1509 16.0194 25.9249C17.1058 24.7069 18.4975 25.398 19.1429 27.4647L19.1431 27.4642C19.1437 27.4663 19.1454 27.4717 19.1482 27.4808C19.1633 27.5266 19.212 27.6698 19.3053 27.9082C19.712 28.9427 20.8858 31.5691 23.2049 33.9604C25.5276 36.3457 29.011 38.5438 34.1685 38.5508C35.4358 38.5508 36.4629 40.5244 36.4629 42.9598C36.4629 45.3947 35.4358 47.3694 34.1685 47.3694C34.1564 47.3694 34.1441 47.3694 34.1317 47.3694Z" fill="black"/>
<path d="M79.8517 52.6826H77.872L77.8726 100H73.5857V60.4286H26.4146V100H22.1282L22.1276 52.6826H20.1486V49.1519H79.8517V52.6826Z" fill="white"/>
<path d="M43.7618 39.6993H55.569V46.6805H43.7618V39.6993Z" fill="#5E96FF"/>
<path d="M45.8652 31.9836H56.9553V37.8625H45.8652V31.9836Z" fill="#FFAE00"/>
<path d="M43.3798 25.7371H54.4694V30.1466H43.3798V25.7371Z" fill="#5E96FF"/>
</g>
<defs>
<clipPath id="clip0_39_53">
<rect width="100" height="100" fill="white" transform="matrix(-1 0 0 1 100 0)"/>
</clipPath>
</defs>
</svg>
