<svg width="100" height="100" viewBox="0 0 100 100" fill="none" xmlns="http://www.w3.org/2000/svg">
<path d="M19.0986 89.4533V69.3619H26.4045V89.4533L30.0576 94.9328H15.4457L19.0986 89.4533Z" fill="#7A4922"/>
<path d="M11.7926 49.2705H33.7106L30.0576 31.0055H15.4457L11.7926 49.2705Z" fill="#D78E0C"/>
<path d="M49.9143 76.6678L46.2612 94.9328H40.7817L44.4348 76.6678H49.9143Z" fill="#7A4922"/>
<path d="M80.9646 94.9328H77.3115L73.6586 76.6678H81.4818L80.9646 94.9328Z" fill="#7A4922"/>
<path d="M39.8363 38.3115H36.1511C35.3773 38.3115 34.6187 38.527 33.9603 38.9338C33.3019 39.3406 32.7699 39.9229 32.4238 40.615C31.9879 41.4869 31.8714 42.484 32.0947 43.433L38.0115 68.5797C38.6857 71.4449 40.3453 73.9824 42.7002 75.7486C45.0648 77.5221 47.9791 78.4045 50.9302 78.2404L81.582 76.6678L80.4914 63.3105L49.9142 64.8438L39.8363 38.3115Z" fill="#E42A3C"/>
<path d="M88.2705 73.0148L90.9868 67.5826C91.8117 65.9326 92.1468 64.0808 91.9525 62.2465C91.7581 60.4119 91.0424 58.6715 89.8901 57.231C88.8406 55.9191 87.467 54.9039 85.9051 54.2851C84.3432 53.6666 82.6469 53.4662 80.9838 53.7037L73.6596 54.75V64.9902L88.2705 73.0148Z" fill="#F0BF9E"/>
<path d="M42.6082 10.9141L39.5676 9.9006C38.8082 9.64747 38.0011 9.57112 37.2076 9.67737C36.4142 9.78362 35.6556 10.0697 34.9896 10.5137C34.0304 11.1534 33.3082 12.0907 32.9341 13.1812C32.5601 14.2718 32.5549 15.455 32.9193 16.5488L34.1888 20.3596C34.9183 22.548 35.064 24.8889 34.6117 27.151L33.4765 32.832C35.123 32.832 36.7369 32.3734 38.1375 31.5078C39.5381 30.6422 40.6699 29.4037 41.4062 27.931L42.6088 25.526L42.6082 10.9141Z" fill="#5B3719"/>
<path d="M59.0467 21.873L60.8481 19.1709C61.4313 18.2961 61.8253 17.3091 62.0047 16.2732C62.1842 15.2372 62.1452 14.1752 61.8901 13.1553C61.5711 11.8795 60.9799 10.6878 60.1571 9.66201C59.3342 8.63621 58.2991 7.80058 57.1229 7.2125C56.0014 6.65166 54.776 6.32826 53.5239 6.26254C52.2715 6.19679 51.0192 6.39013 49.845 6.83047L46.846 7.95508C44.5981 8.79787 42.6999 10.3736 41.4579 12.4279C40.2157 14.4823 39.7022 16.8953 40.0001 19.2773C40.2368 21.1707 40.9764 22.966 42.1422 24.4766C43.3081 25.9871 44.8575 27.1576 46.629 27.8662L49.9143 29.1797L59.0467 21.873Z" fill="#7A4922"/>
<path d="M48.8514 31.0055L47.9488 23.8889L46.748 24.165C46.4621 24.2014 46.1719 24.1809 45.8938 24.1049C45.6156 24.0291 45.3553 23.8992 45.1275 23.7227C44.8996 23.5461 44.7088 23.3264 44.5658 23.076C44.423 22.8258 44.3307 22.5498 44.2945 22.2639C44.2213 21.6863 44.3805 21.1035 44.7369 20.6434C45.0936 20.1834 45.6182 19.8838 46.1957 19.8106L48.373 19.5344C51.2123 19.1742 53.8816 17.9816 56.0443 16.107L58.707 13.799L59.8117 22.508C59.8842 23.0799 59.8434 23.6604 59.6916 24.2164C59.5398 24.7725 59.2799 25.2932 58.927 25.7488C58.5738 26.2045 58.1344 26.5861 57.634 26.8721C57.1334 27.1578 56.5814 27.3424 56.0096 27.4149L53.8322 27.691L54.2525 31.0055H48.8514Z" fill="#FDC9A6"/>
<path d="M55.666 70.6471L73.6586 69.3619V54.7498L60.873 56.5764L59.0467 43.791C59.1187 43.7549 59.1892 43.717 59.2582 43.6774C61.4584 42.4133 61.8453 39.3844 60.1414 37.5041L54.2525 31.0055H47.6367C46.6217 31.0055 45.6166 31.2055 44.6789 31.5938C43.7412 31.9822 42.889 32.5516 42.1715 33.2694C41.1968 34.244 40.5006 35.4615 40.1549 36.7957C39.809 38.1301 39.8263 39.5324 40.2051 40.8578L46.1765 63.835C46.7133 65.9002 47.9562 67.7123 49.6896 68.9567C51.423 70.201 53.5375 70.799 55.666 70.6471Z" fill="#FF8AA0"/>
<path d="M73.6586 60.2293H80.9662C82.9035 60.2293 84.7615 60.9988 86.1314 62.3688C87.5013 63.7387 88.2709 65.5967 88.2709 67.534V89.4531L91.9232 91.2795L90.0969 94.9318H80.9646L79.1381 69.3609H73.6586V60.2293Z" fill="#FDC9A6"/>
<path d="M88.2705 80.3207L93.75 83.9738L91.9234 85.8002H88.2705V80.3207Z" fill="#F0BF9E"/>
<path d="M62.6996 49.2705H75.4851L82.791 29.1791H68.1791L62.6996 49.2705Z" fill="#5CA4D9"/>
<path d="M75.4851 21.873L82.791 29.1791H73.6586L75.4851 21.873Z" fill="#5292C1"/>
<path d="M4.48648 62.0558H41.0164V69.3619H4.48648V62.0558Z" fill="#7A4922"/>
<path d="M19.0985 69.3619H26.4045V74.2842H19.0985V69.3619Z" fill="#5B3719"/>
<path d="M27.3178 56.5764H18.1854C17.8256 56.5764 17.4693 56.6473 17.1369 56.785C16.8045 56.9226 16.5023 57.1244 16.248 57.3789C15.9936 57.6334 15.7918 57.9353 15.6541 58.2678C15.5164 58.6002 15.4457 58.9566 15.4457 59.3164V62.056H30.0576V59.3164C30.0576 58.9566 29.9869 58.6002 29.8492 58.2678C29.7115 57.9353 29.5098 57.6332 29.2553 57.3789C29.0008 57.1244 28.6988 56.9226 28.3664 56.785C28.034 56.6473 27.6775 56.5764 27.3178 56.5764Z" fill="#D78E0C"/>
<path d="M48.0876 38.3115L49.9142 45.6174L64.3945 43.7695L68.1794 40.1377H71.8318V43.79L70.0054 47.4424L49.5732 52.6207C47.9265 52.7703 46.2792 52.3406 44.9154 51.4057C43.5515 50.4709 42.5568 49.0895 42.1025 47.4996L40.2042 40.8561L48.0876 38.3115Z" fill="#FDC9A6"/>
<path d="M4.48675 61.2746H14.6643V59.3164C14.6643 58.8539 14.7553 58.3961 14.9323 57.9689C15.1092 57.5416 15.3686 57.1535 15.6955 56.8265C16.0225 56.4996 16.4108 56.2402 16.8379 56.0633C17.2651 55.8863 17.7231 55.7953 18.1854 55.7953H20.144V50.0517H11.818C11.6766 50.0547 11.5368 50.0211 11.4121 49.9541C11.2676 49.8732 11.1526 49.7488 11.0832 49.5984C11.0141 49.4482 10.9942 49.2799 11.0266 49.1175L14.6789 30.8525C14.7143 30.6754 14.81 30.516 14.9496 30.4015C15.0893 30.2871 15.2643 30.2246 15.445 30.2246H30.0576C30.2381 30.2246 30.4131 30.2873 30.5528 30.4017C30.6924 30.5162 30.7881 30.6754 30.8235 30.8525L32.4664 39.0668C32.9276 38.5799 33.4836 38.1924 34.1 37.9281C34.7164 37.664 35.3805 37.5287 36.0512 37.5306H38.9553C39.0418 37.5316 39.1278 37.547 39.2092 37.5763C39.4873 35.5388 40.4944 33.6713 42.044 32.3195C43.5934 30.9677 45.5805 30.2232 47.6367 30.2242H47.9649L47.8334 29.189L46.3395 28.5914C45.1102 28.0996 43.9756 27.398 42.9864 26.5181L42.1045 28.2814C41.3098 29.884 40.0828 31.2324 38.5623 32.1746C37.0416 33.1168 35.2881 33.6152 33.4992 33.6134C33.3578 33.6162 33.2182 33.582 33.094 33.5146C32.9498 33.4338 32.8352 33.3091 32.7662 33.1591C32.6971 33.009 32.6774 32.8408 32.7098 32.6789L33.8459 26.9982C34.2707 24.8695 34.1336 22.6668 33.4479 20.6072L32.1778 16.7968C31.8233 15.7331 31.7719 14.5918 32.0295 13.5006C32.2871 12.4094 32.8436 11.4115 33.6364 10.6187C34.4291 9.82591 35.427 9.26952 36.5182 9.0119C37.6094 8.75429 38.7508 8.80559 39.8145 9.16009L42.3368 9.99993C43.5239 8.77054 44.9707 7.82196 46.5715 7.22356L49.434 6.14934C51.5926 5.32036 53.9705 5.25796 56.1698 5.97259C57.7276 6.49061 59.1323 7.38815 60.2567 8.58433C61.3813 9.78048 62.1905 11.2377 62.6116 12.8245C62.9129 13.99 62.9633 15.2062 62.7596 16.3926C62.5557 17.579 62.1022 18.7086 61.4291 19.7066L60.433 21.2008L60.5729 22.3019C60.7547 23.6312 60.4268 24.9802 59.6549 26.0777C59.2416 26.6558 58.7129 27.142 58.1022 27.5052C57.4914 27.8687 56.8121 28.1015 56.1069 28.1892L54.7049 28.367L54.9967 30.664L60.7203 36.9802C61.2116 37.5205 61.5748 38.1646 61.7832 38.8644C61.9916 39.5642 62.0397 40.3021 61.9241 41.0232C61.7821 41.9398 61.3719 42.7939 60.745 43.4775L63.5662 43.125L67.4254 28.9748C67.4705 28.8093 67.5688 28.6634 67.7049 28.5593C67.841 28.4552 68.0076 28.399 68.1791 28.399H73.0485L74.7196 21.715C74.7639 21.5203 74.8778 21.3486 75.0399 21.232C75.1903 21.1277 75.3727 21.0795 75.5549 21.0959C75.7373 21.1125 75.908 21.1924 76.0375 21.3218L83.3985 28.9404C83.4492 28.9927 83.4842 29.0586 83.4995 29.1299C83.5149 29.2011 83.5099 29.2754 83.4852 29.3441L76.2182 49.5375C76.1633 49.6881 76.0635 49.8183 75.9323 49.9103C75.8008 50.0023 75.6444 50.0517 75.484 50.0517H62.9426C62.9311 50.0517 62.9203 50.0488 62.9088 50.0482L60.8049 50.5814L61.535 55.6925L80.8727 52.9297C82.7585 52.6601 84.6821 52.9119 86.435 53.6576C88.188 54.4033 89.7035 55.6144 90.8173 57.1597C91.9311 58.7052 92.6009 60.5259 92.7539 62.4246C92.907 64.3234 92.5375 66.2279 91.6856 67.9318L89.0518 73.1994V79.9023L94.1621 83.3095C94.2814 83.3855 94.3789 83.4912 94.4453 83.616C94.5208 83.7633 94.5476 83.9308 94.5219 84.0943C94.4962 84.2578 94.4193 84.409 94.3024 84.5261L92.476 86.3527C92.4035 86.4252 92.3173 86.4828 92.2225 86.522C92.1277 86.5613 92.0261 86.5814 91.9235 86.5814H89.0524V88.9703L92.2737 90.5808C92.3654 90.6267 92.4473 90.6902 92.5145 90.7677C92.5818 90.8453 92.633 90.9351 92.6655 91.0326C92.6979 91.1299 92.7109 91.2326 92.7036 91.3349C92.6963 91.4373 92.669 91.5373 92.6231 91.6291L90.7965 95.2814C90.7317 95.4111 90.6319 95.5203 90.5085 95.5966C90.3851 95.673 90.2428 95.7134 90.0977 95.7134H77.3121C77.1315 95.7134 76.9565 95.6507 76.8168 95.5363C76.6772 95.4218 76.5815 95.2625 76.5461 95.0853L73.086 77.7865C73.086 77.7865 50.4493 79.0365 50.2371 79.0382L47.0276 95.0859C46.9922 95.2631 46.8965 95.4224 46.7569 95.5369C46.6172 95.6513 46.4422 95.714 46.2616 95.714H40.8075C40.666 95.717 40.5264 95.6834 40.4018 95.6164C40.2573 95.5355 40.1422 95.4111 40.0729 95.2607C40.0037 95.1105 39.9838 94.9422 40.0162 94.7799L43.5157 77.2816C40.736 75.6961 38.6211 73.1617 37.5586 70.1431H27.1856V89.2168L30.6926 94.4773C30.8096 94.6455 30.8584 94.8517 30.8293 95.0547C30.8 95.2384 30.7061 95.4056 30.5647 95.5265C30.4231 95.6474 30.2432 95.7138 30.0571 95.714H15.4707C15.2662 95.7179 15.0678 95.6443 14.9155 95.5078C14.7789 95.3814 14.6918 95.2105 14.67 95.0258C14.6479 94.841 14.6924 94.6545 14.7955 94.4996L18.3174 89.2168V70.1431H4.48675C4.27952 70.1431 4.08089 70.0607 3.93441 69.9142C3.78773 69.7677 3.7055 69.5691 3.7055 69.3619V62.0558C3.7055 61.8486 3.78773 61.65 3.93441 61.5033C4.08089 61.3568 4.27952 61.2746 4.48675 61.2746ZM18.1854 57.3576C17.6661 57.3582 17.1682 57.5646 16.801 57.932C16.4338 58.2992 16.2274 58.797 16.2268 59.3164V61.2748H29.2764V59.3164C29.2758 58.797 29.0694 58.2992 28.7022 57.932C28.335 57.5648 27.8371 57.3584 27.3178 57.3578L18.1854 57.3576ZM30.8389 59.3164V61.2748H35.3907L32.75 50.0519H25.3594V55.7953H27.3178C28.2514 55.7963 29.1463 56.1675 29.8065 56.8277C30.4666 57.4879 30.8379 58.3828 30.8389 59.3164ZM23.7969 55.7953V50.0517H21.7071V55.7951L23.7969 55.7953ZM29.417 31.7867H16.086L12.7461 48.4892H32.7576L29.417 31.7867ZM39.3205 10.6417C38.5321 10.3789 37.6862 10.3408 36.8772 10.5317C36.0684 10.7226 35.3287 11.135 34.741 11.7227C34.1534 12.3104 33.741 13.0501 33.55 13.859C33.3592 14.6678 33.3973 15.5139 33.6602 16.3023L34.9297 20.1129C35.7012 22.4304 35.8553 24.9091 35.3774 27.3047L34.4399 31.9943C35.7694 31.839 37.0389 31.3541 38.1334 30.5834C39.2278 29.8129 40.1123 28.781 40.7067 27.5816L41.8317 25.3316C40.1932 23.3853 39.2481 20.9496 39.145 18.4075C39.0418 15.8654 39.7868 13.3612 41.2623 11.2886L39.3205 10.6417ZM59.4821 13.7005L60.1332 18.8347L60.1981 18.737C60.7201 17.9526 61.0729 17.0679 61.234 16.1395C61.395 15.211 61.3604 14.2592 61.1328 13.3449C60.8481 12.2054 60.3256 11.1389 59.5998 10.2154C58.8741 9.29196 57.9614 8.53231 56.9213 7.98628C55.8815 7.44024 54.7379 7.12016 53.5657 7.04702C52.3934 6.97388 51.219 7.14933 50.1192 7.56185L47.1203 8.68645C45.6692 9.22843 44.3655 10.1032 43.3137 11.2406C43.2504 11.3774 43.1487 11.4928 43.0207 11.5726C42.0131 12.7715 41.3041 14.1923 40.952 15.7183C40.5998 17.2443 40.6147 18.8321 40.9951 20.3513C41.3756 21.8705 42.111 23.2779 43.1409 24.4578C44.1705 25.6377 45.4657 26.5566 46.9194 27.139L47.6082 27.4146L47.2821 24.8429L46.9227 24.9258C46.8973 24.9314 46.8717 24.9361 46.8459 24.9392C46.4582 24.9884 46.0647 24.9607 45.6875 24.8578C45.3106 24.7549 44.9577 24.5787 44.6487 24.3392C44.3397 24.0998 44.0809 23.8019 43.8871 23.4627C43.6934 23.1232 43.5684 22.749 43.5192 22.3613C43.47 21.9736 43.4977 21.58 43.6006 21.2029C43.7035 20.8259 43.8797 20.4728 44.1192 20.164C44.3586 19.855 44.6565 19.5963 44.9957 19.4025C45.3352 19.2087 45.7094 19.0837 46.0971 19.0345L48.2744 18.7583C50.9614 18.4203 53.4875 17.2918 55.5323 15.5161L58.1953 13.2085C58.3022 13.1159 58.4323 13.0541 58.5715 13.0295C58.7106 13.0049 58.8539 13.0187 58.986 13.0692C59.1182 13.1197 59.234 13.2051 59.3213 13.3163C59.4086 13.4274 59.4643 13.5602 59.4821 13.7005ZM55.9114 26.6406C56.8606 26.5201 57.7231 26.0275 58.3092 25.2711C58.8951 24.5146 59.1569 23.5564 59.0364 22.6072L58.1155 15.3462L56.5557 16.698C54.278 18.6761 51.4641 19.9334 48.4709 20.3101L46.2936 20.5863C45.925 20.6334 45.5899 20.8238 45.3606 21.1164C45.1315 21.4088 45.0266 21.7797 45.0688 22.1488C45.111 22.5179 45.2969 22.8556 45.5862 23.0888C45.8754 23.322 46.245 23.4318 46.6147 23.3947L47.7735 23.1283C47.8799 23.1039 47.9903 23.1019 48.0975 23.1228C48.2047 23.1437 48.3065 23.1869 48.3959 23.2494C48.4854 23.3119 48.5608 23.3925 48.6172 23.4861C48.6737 23.5797 48.7098 23.684 48.7235 23.7924L49.5395 30.2259H53.3657L53.0569 27.7912C53.044 27.6894 53.0512 27.5861 53.0782 27.4871C53.1053 27.3881 53.1514 27.2953 53.2143 27.2142C53.2772 27.1332 53.3553 27.0652 53.4446 27.0144C53.5336 26.9634 53.6319 26.9306 53.7336 26.9177L55.9114 26.6406ZM59.5625 38.0287L53.9063 31.7867H47.6367C46.6301 31.7863 45.6354 32.0049 44.7215 32.4273C43.8077 32.8498 42.9967 33.4658 42.3448 34.2328C41.6928 35 41.2155 35.8996 40.9459 36.8695C40.6762 37.8394 40.6207 38.8564 40.7834 39.85L47.8481 37.5681C47.95 37.5351 48.0575 37.5236 48.1641 37.534C48.2705 37.5443 48.3739 37.5763 48.4674 37.6283C48.561 37.6802 48.643 37.7509 48.7082 37.8359C48.7733 37.9207 48.8203 38.0181 48.8463 38.122L50.5047 44.7562L58.2668 43.7861C58.2676 43.642 58.3084 43.5008 58.3844 43.3783C58.4606 43.2558 58.569 43.1568 58.6979 43.0922C58.7565 43.0629 58.8141 43.0318 58.8696 43C59.2721 42.7668 59.617 42.4461 59.8787 42.0615C60.1405 41.6769 60.3121 41.2383 60.3811 40.7783C60.4598 40.2879 60.4272 39.7861 60.2856 39.3101C60.1438 38.834 59.8967 38.3961 59.5625 38.0287ZM75.9082 23.4009L74.6582 28.3976H80.9049L75.9082 23.4009ZM74.9379 48.4892L81.6758 29.9609H68.7758L65.5973 41.6156L67.6268 39.5863C67.7733 39.4398 67.9719 39.3574 68.1791 39.3574H71.8315C72.0387 39.3574 72.2373 39.4396 72.3838 39.5861C72.5305 39.7328 72.6127 39.9314 72.6127 40.1386V43.791C72.6127 43.9123 72.5846 44.0318 72.5303 44.1404L70.7039 47.7927C70.6535 47.8931 70.5821 47.9816 70.4946 48.0521C70.4069 48.1224 70.3051 48.1732 70.1961 48.2007L69.0602 48.4886L74.9379 48.4892ZM69.4668 46.7746L71.0508 43.6064V40.9191H68.5028L65.0782 44.3433C64.9553 44.4662 64.7951 44.5445 64.6227 44.5662L50.0108 46.3925C49.8213 46.4162 49.6297 46.3697 49.4721 46.2617C49.3147 46.1537 49.2022 45.9918 49.1559 45.8066L47.5321 39.3115L41.1629 41.3689L42.8535 47.2869C43.2551 48.6918 44.1311 49.9144 45.3323 50.7463C46.5336 51.5781 47.9862 51.9681 49.4426 51.8498L69.4668 46.7746ZM72.8774 55.6506L60.9828 57.3498C60.7778 57.3787 60.5698 57.325 60.4041 57.2008C60.2385 57.0765 60.1287 56.8918 60.0991 56.6869L59.2819 50.9675L49.7657 53.3789C49.7258 53.3888 49.6854 53.3959 49.6446 53.3996C49.4035 53.4215 49.1635 53.4322 48.9246 53.4322C47.0356 53.4324 45.2098 52.7517 43.7821 51.515L46.9328 63.6377C47.4241 65.5259 48.5608 67.1828 50.1459 68.3207C51.7309 69.4584 53.6643 70.0054 55.6106 69.867L72.8776 68.6336L72.8774 55.6506ZM90.2877 67.2326C91.0119 65.7838 91.326 64.1646 91.1957 62.5502C91.0655 60.9357 90.496 59.3877 89.549 58.0738C88.602 56.7599 87.3135 55.73 85.8231 55.0961C84.3327 54.4621 82.6972 54.248 81.0938 54.4769L74.4401 55.4275V59.4482H80.9662C83.1101 59.4506 85.1654 60.3031 86.6813 61.8191C88.1972 63.3349 89.0499 65.3904 89.0522 67.5341V69.705L90.2877 67.2326ZM91.5998 85.0195L92.5239 84.0957L89.0518 81.781V85.0195H91.5998ZM81.6928 94.1521H89.6143L90.8754 91.6297L87.9211 90.1525C87.7913 90.0875 87.6821 89.9877 87.6058 89.8642C87.5295 89.7406 87.4892 89.5982 87.4893 89.4531V67.5338C87.4875 65.8041 86.7996 64.1459 85.5766 62.923C84.3536 61.7 82.6954 61.0121 80.9659 61.0103H74.4395V68.5224L79.0821 68.1916C79.1844 68.1841 79.2873 68.1972 79.3846 68.2297C79.4821 68.2621 79.5721 68.3134 79.6496 68.3806C79.7272 68.448 79.7907 68.5299 79.8366 68.6216C79.8825 68.7136 79.9098 68.8134 79.917 68.916L81.6928 94.1521ZM77.952 94.1521H80.1264L78.9522 77.4611L74.6614 77.6994L77.952 94.1521ZM41.7348 94.1521H45.6215L48.6606 78.9568C47.3897 78.8152 46.1455 78.492 44.9664 77.997L41.7348 94.1521ZM43.0692 75.1242C45.2871 76.7859 48.0198 77.6131 50.7869 77.4609L78.8424 75.9021L78.4127 69.8064C78.4127 69.8064 55.2448 71.4521 55.0086 71.4521C52.8145 71.4508 50.6826 70.7215 48.9473 69.3789C47.2119 68.0361 45.9709 66.1556 45.4188 64.032L39.4532 41.0724C39.2682 40.4197 39.1619 39.747 39.1369 39.0691C39.0774 39.0841 39.0162 39.092 38.9549 39.0927H36.0508C35.4215 39.0906 34.8043 39.2648 34.269 39.5957C33.7336 39.9265 33.3018 40.4007 33.0223 40.9646C32.9774 41.0543 32.9379 41.1478 32.901 41.2416L34.4766 49.1172C34.4992 49.2304 34.4965 49.3474 34.4686 49.4595C34.4405 49.5718 34.3879 49.6763 34.3147 49.7658C34.308 49.7738 34.2994 49.7797 34.2926 49.7875L36.9953 61.2746H41.0157C41.2229 61.2746 41.4215 61.3568 41.568 61.5033C41.7147 61.65 41.7969 61.8486 41.7969 62.0558V69.3619C41.7969 69.5691 41.7147 69.7677 41.568 69.9142C41.4215 70.0607 41.2229 70.1431 41.0157 70.1431H39.2266C40.0289 72.1228 41.3578 73.8453 43.0692 75.1236V75.1242ZM16.9055 94.1521H28.5979L25.9866 90.2343H19.5168L16.9055 94.1521ZM25.6233 88.6718V70.1431H19.8799V88.6718H25.6233ZM5.268 68.5806H40.2344V62.8371H5.268V68.5806Z" fill="black"/>
</svg>
